# xmcd
#
# Track frame offsets:
#  150
#  22577
#  44682
#  62372
#  83172
#  97882
#  119545
#  136607
#  156155
#  172130
#  188155
#  207470
#  226633
#  243588
#  263058
#  283443
#
# Disc length: 4036 seconds
#
# Revision: 0
# Processed by: cddbd v1.4PL0 Copyright (c) Steve Scherf et al.
# Submitted via: AltoMP3_Maker 3.0
#
DISCID=d70fc210
DTITLE=陈慧珊 - 自在
DYEAR=1900
DGENRE=
TTITLE0=我还记得我是谁
TTITLE1=迷信
TTITLE2=撒旦与天使
TTITLE3=相信直觉
TTITLE4=模范生
TTITLE5=悲哀不悲哀
TTITLE6=水造了我
TTITLE7=望住我
TTITLE8=不是我的
TTITLE9=自在
TTITLE10=只知我难避开
TTITLE11=就算我做错
TTITLE12=干脆
TTITLE13=固定伴侣
TTITLE14=坏男人
TTITLE15=就是他
EXTD=
EXTT0=
EXTT1=
EXTT2=
EXTT3=
EXTT4=
EXTT5=
EXTT6=
EXTT7=
EXTT8=
EXTT9=
EXTT10=
EXTT11=
EXTT12=
EXTT13=
EXTT14=
EXTT15=
PLAYORDER=
